<svg id="Layer_1" data-name="Layer 1" xmlns="http://www.w3.org/2000/svg" viewBox="0 0 322.13 340.9"><defs><style>.cls-1,.cls-3,.cls-6{fill:#ffc735;}.cls-1{fill-opacity:0.43;fill-rule:evenodd;}.cls-15,.cls-2,.cls-7{fill:#fff;}.cls-13,.cls-2,.cls-5,.cls-6,.cls-9{stroke:#263238;}.cls-10,.cls-13,.cls-2,.cls-5,.cls-6,.cls-9{stroke-linecap:round;stroke-linejoin:round;}.cls-4{opacity:0.3;}.cls-15,.cls-4,.cls-8{isolation:isolate;}.cls-10,.cls-5{fill:none;}.cls-8{opacity:0.17;}.cls-11,.cls-9{fill:#263238;}.cls-10{stroke:#fff;}.cls-12,.cls-13{fill:#b4d51e;}.cls-14{fill:#463c74;}.cls-15{opacity:0.5;}</style></defs><path class="cls-1" d="M311.52,29.19c23.81,30.15,5.39,77,6.55,117,1.11,38.38,23.67,84.17.09,112.37-24.41,29.19-70.61-.55-104.55,12.54-31.44,12.12-48.19,57.85-81.45,59.16-35.46,1.4-69.49-22.37-92.43-52.31-23.08-30.14-37-71-32-110.08,4.69-36.41,35.44-59.3,57.36-87,18.06-22.78,34.32-47,59.06-59.95C150.25,7.27,178.7,4.9,207.5,6.17,243.73,7.77,287.68-1,311.52,29.19Z" transform="translate(-6.74 -5.87)"/><path class="cls-2" d="M58,250.33s-4.48-4.33-9.1-5.81-10-1.52-14.57-2.91S27,239.05,27,239.05l-.23,4.6,31.07,9.29L79,246.43l2.12-4.78a32.62,32.62,0,0,1-7.24,2.7c-4.63,1.21-9.81,1.21-12.68,2.43A5.19,5.19,0,0,0,58,250.33Z" transform="translate(-6.74 -5.87)"/><path class="cls-2" d="M26.28,240.09a100,100,0,0,0,18.61,4.36A26.91,26.91,0,0,1,58,250.33a19.64,19.64,0,0,1,10.44-3.64,48.78,48.78,0,0,0,13.1-3l-1.33,3-22.83,4.95-31.54-9.12Z" transform="translate(-6.74 -5.87)"/><path class="cls-2" d="M25.42,241.13a52.05,52.05,0,0,0,15,3.88c8.4.7,17.29,5.32,17.29,5.32a24.59,24.59,0,0,1,11.06-3.12,46.71,46.71,0,0,0,12.79-1.91,3.69,3.69,0,0,0-.09,1.48,3.55,3.55,0,0,0,.48,1.38l-24.32,5.73-32.4-10.42Z" transform="translate(-6.74 -5.87)"/><path class="cls-3" d="M25,243l31.61,8.77V253l2.67.08v-1.38l23.38-4.09s1-.26.15,1-15.92,15.81-15.92,15.81l-16.71,1.9-25.35-6.16Z" transform="translate(-6.74 -5.87)"/><path class="cls-4" d="M56.65,253v-1.22L25,243l-.16,17.19,25.34,6.16.45-.05,6.69-13.29Z" transform="translate(-6.74 -5.87)"/><path class="cls-5" d="M25,243l31.61,8.77V253l2.67.08v-1.38l23.38-4.09s1-.26.15,1-15.92,15.81-15.92,15.81l-16.71,1.9-25.35-6.16Z" transform="translate(-6.74 -5.87)"/><path class="cls-6" d="M56.64,253l-7,13.36,1.34.09,8.31-13.37Z" transform="translate(-6.74 -5.87)"/><path class="cls-2" d="M55.52,334.49S54,338,52,339.63s-4.61,2.37-6.66,3.93a33.87,33.87,0,0,0-3.19,2.71l-.81-3.07L55,332.76l11.37,1.52,1.75,2.93a13.68,13.68,0,0,0-3.93-.85c-2.43-.19-5,.52-6.56.08a3.11,3.11,0,0,1-1.26-.71A3.63,3.63,0,0,1,55.52,334.49Z" transform="translate(-6.74 -5.87)"/><path class="cls-2" d="M41.63,345.66A41.11,41.11,0,0,1,50,340.22a13.49,13.49,0,0,0,5.48-5.73,8.31,8.31,0,0,0,5.65,1,18.9,18.9,0,0,1,6.83.22l-1.11-1.87L55,333.64,41,344Z" transform="translate(-6.74 -5.87)"/><path class="cls-2" d="M41.05,345.08a22.14,22.14,0,0,1,6.74-4.64c4-1.6,7.62-5.92,7.62-5.92a9.72,9.72,0,0,0,5.87.61,17.53,17.53,0,0,1,6.53-.43,3.51,3.51,0,0,1-.25-2l-12.73-.56L40.61,343.53Z" transform="translate(-6.74 -5.87)"/><path class="cls-3" d="M40.53,343.85l14.09-10.18-.19-.81,1.29-.42.21.93,12-.4s.53,0-.08-.72-10.14-8.51-10.14-8.51l-8.44,1-11.43,7.57Z" transform="translate(-6.74 -5.87)"/><path class="cls-4" d="M54.46,332.86l.19.81L40.57,343.85l-2.7-11.57,11.42-7.57.23,0,5.29,8.07Z" transform="translate(-6.74 -5.87)"/><path class="cls-5" d="M40.53,343.85l14.09-10.18-.19-.81,1.29-.42.21.93,12-.4s.53,0-.08-.72-10.14-8.51-10.14-8.51l-8.44,1-11.43,7.57Z" transform="translate(-6.74 -5.87)"/><path class="cls-6" d="M54.46,332.86,49,324.79l.64-.24,6.09,7.89Z" transform="translate(-6.74 -5.87)"/><path class="cls-6" d="M266.12,226.68l25.57,28.64-54.59,17-3.61-28.72Z" transform="translate(-6.74 -5.87)"/><path class="cls-2" d="M288.74,259.46l-56.45,18.36,4.55-33,28.49-14.07Z" transform="translate(-6.74 -5.87)"/><path class="cls-7" d="M266.67,232.53l21,30-53,17,6.15-36.12Z" transform="translate(-6.74 -5.87)"/><path class="cls-8" d="M266.67,232.53l21,30-53,17,6.15-36.12Z" transform="translate(-6.74 -5.87)"/><path class="cls-5" d="M266.67,232.53l21,30-53,17,6.15-36.12Z" transform="translate(-6.74 -5.87)"/><path class="cls-2" d="M266.67,232.53l-9.63,37-37.6,12.59,14.45-34.06Z" transform="translate(-6.74 -5.87)"/><path class="cls-2" d="M254.37,266.57,218.11,280,217,274.41l33.58-13.32Z" transform="translate(-6.74 -5.87)"/><path class="cls-2" d="M265.73,227.49l24.08,27.68-1.07,4.29-22.07-26.93-12.3,34-3.75-5.48Z" transform="translate(-6.74 -5.87)"/><path class="cls-3" d="M266.12,226.68l-15.37,35.45L215.3,275.46l18.19-31.84Z" transform="translate(-6.74 -5.87)"/><path class="cls-4" d="M266.12,226.68l-15.37,35.45L215.3,275.46l18.19-31.84Z" transform="translate(-6.74 -5.87)"/><path class="cls-5" d="M266.12,226.68l-15.37,35.45L215.3,275.46l18.19-31.84Z" transform="translate(-6.74 -5.87)"/><path class="cls-5" d="M232,246.89l28.52-14.4" transform="translate(-6.74 -5.87)"/><path class="cls-6" d="M147.36,329.61,173.54,294l-54-2.81-4.3,29.94Z" transform="translate(-6.74 -5.87)"/><path class="cls-2" d="M170.71,290.57l-55.84-3.66L118.6,319l28.07,6.69Z" transform="translate(-6.74 -5.87)"/><path class="cls-7" d="M148,323.57l21.67-35.86-52.4-3.23,5.26,34.84Z" transform="translate(-6.74 -5.87)"/><path class="cls-8" d="M148,323.57l21.67-35.86-52.4-3.23,5.26,34.84Z" transform="translate(-6.74 -5.87)"/><path class="cls-5" d="M148,323.57l21.67-35.86-52.4-3.23,5.26,34.84Z" transform="translate(-6.74 -5.87)"/><path class="cls-2" d="M148,323.57l-8.7-34.81L102.17,286l13.57,30.56Z" transform="translate(-6.74 -5.87)"/><path class="cls-2" d="M136.6,292.45l-35.82-4-1.2,6L132.74,299Z" transform="translate(-6.74 -5.87)"/><path class="cls-2" d="M147,328.9l24.69-34.28-1-4.05-22.67,33L136.6,292.45,132.74,299Z" transform="translate(-6.74 -5.87)"/><path class="cls-3" d="M147.36,329.61l-14.47-31.73-35-4.11,17.37,27.34Z" transform="translate(-6.74 -5.87)"/><path class="cls-4" d="M147.36,329.61l-14.47-31.73-35-4.11,17.37,27.34Z" transform="translate(-6.74 -5.87)"/><path class="cls-5" d="M147.36,329.61l-14.47-31.73-35-4.11,17.37,27.34Z" transform="translate(-6.74 -5.87)"/><path class="cls-5" d="M112.57,317.16l28.52,6.64" transform="translate(-6.74 -5.87)"/><path class="cls-9" d="M168.59,90s-11.86,6.34-16.6,14-3.36,21.86,3.94,26.45,32.81,21.44,50.8,19,15.21-22.74,6.12-30.84-21.34-15.3-21.34-15.3-.59-4.37-1.39-5.9S180.25,86,168.59,90Z" transform="translate(-6.74 -5.87)"/><path class="cls-2" d="M216.73,123.43c-26.92-9.11-44.66,7.2-50.21,13.45,11.13,6.4,27.53,14.27,40.21,12.57C221.77,147.44,222.29,132.87,216.73,123.43Z" transform="translate(-6.74 -5.87)"/><path class="cls-5" d="M198.43,121s15.81,14,10.27,28" transform="translate(-6.74 -5.87)"/><path class="cls-2" d="M146.52,83.87l-6.34,32.7h5.1L157.85,90.8S155.39,82.53,146.52,83.87Z" transform="translate(-6.74 -5.87)"/><path class="cls-6" d="M226.16,68c-5.19-7-12-13.51-24.59-14.62,0,0-10.7-.37-25.26,6.48-11.38,5.35-23.53,17-29.79,24a21.66,21.66,0,0,1,11.33,6.93c2.49-2.62,4.65-4.89,6.24-6.32a74.54,74.54,0,0,1,13.23-8.89s-8.54,12.95-10.22,16.29-.49,8.7,8.37,10.19,11-.37,14.55-2.6,7.87-4.26,9.55-4.26a13.12,13.12,0,0,0,9.36-3c4.35-3.34,6.2-12.77,7.7-13.51,1-.51,10.16,12.67,17.28,22.56l.61-.35c3.1-1.76,5.52-5.35,7.17-8.52C235.94,83.12,229.52,72.55,226.16,68Z" transform="translate(-6.74 -5.87)"/><path class="cls-5" d="M196.17,59.6s-3.55,9.44,3.56,13" transform="translate(-6.74 -5.87)"/><path class="cls-5" d="M177.32,75.59,185,73.07" transform="translate(-6.74 -5.87)"/><path class="cls-5" d="M177.22,92.07s4.86,4.75,16.24-.62" transform="translate(-6.74 -5.87)"/><path class="cls-5" d="M221.62,75.13c-2.81.41-5,3.61-5,3.61a51.18,51.18,0,0,1,9.84-1.33" transform="translate(-6.74 -5.87)"/><path class="cls-5" d="M177.57,76.37s5.22,0,10.26-.21" transform="translate(-6.74 -5.87)"/><path class="cls-5" d="M180.37,89.59s.56,3.72,7.84,3.3" transform="translate(-6.74 -5.87)"/><path class="cls-2" d="M199.73,56.52s-1.17,6.66-.34,10.18,3.85,7.59,6,3.33,3.34-9,3.34-11.28S201.23,52.26,199.73,56.52Z" transform="translate(-6.74 -5.87)"/><path class="cls-9" d="M216.63,48.19s4.68-1.11,8.7-6.85-1.17-6.47-2.85-12,4.22-3.71-4.3-13.33-22.42-6.29-29-3.15-6.34,13.7-11,14.45S171.48,23,165.79,23s-11.71,6.66-9.37,12.21,6.87,3.15,7.2,2.22-2.34.19-2.52-2.59,6-1.3,7.87,2.41c1.49,3-1.25,7.27-1.16,10.43C168,54,175,58.08,179.51,59c6.07,1.17,13.46.76,19-2.58,6.76-4.11,3.62-12.62,8.6-14.84s7.53,1.11,7.53,1.11Z" transform="translate(-6.74 -5.87)"/><path class="cls-10" d="M165.49,26.46a4.64,4.64,0,0,0-2.74-.41,4.82,4.82,0,0,0-2.53,1.23" transform="translate(-6.74 -5.87)"/><path class="cls-10" d="M210.14,31.65s0-11-7-13.26-15,7.73-19,14-10,4.79-14.31-1.84a14.16,14.16,0,0,0-1.36-1.8" transform="translate(-6.74 -5.87)"/><path class="cls-10" d="M170.54,52.32c3.62,2.57,6.33,3.31,11.65,1.47s4.66-11.42,9.31-16.57,13-3.32,13-3.32-9.31-5.52-16.64.37S181.18,50.1,174.53,52" transform="translate(-6.74 -5.87)"/><path class="cls-10" d="M214.8,32.79s6.34-1.84,6-8.1" transform="translate(-6.74 -5.87)"/><path class="cls-10" d="M162.66,103.77s17.2,2.4,25.89,9" transform="translate(-6.74 -5.87)"/><path class="cls-2" d="M211.17,35.18a5.29,5.29,0,0,0-3.27,0,5.84,5.84,0,0,0-2.75,2c-2.84,3.33-2.72,5-5.09,7.08a4,4,0,0,1-2.53,1.16,3.94,3.94,0,0,1-2.65-.79c-1-.55-2.18-.18-2.51,2.41s2.84,4.62,3.35,4.62a12.81,12.81,0,0,1,1.5.19s0,4.63,2.84,7.41,8.54,7.22,12.39,6.3,5.35-10.74,5.35-15.74A50.11,50.11,0,0,0,215.13,35C214,32.08,211.17,35.18,211.17,35.18Z" transform="translate(-6.74 -5.87)"/><path class="cls-11" d="M208,46.43c0,1-.32,1.86-.74,1.86s-.75-.83-.75-1.86.33-1.86.75-1.86S208,45.4,208,46.43Z" transform="translate(-6.74 -5.87)"/><path class="cls-11" d="M214,45.81c0,1-.34,1.86-.74,1.86s-.76-.83-.76-1.86.34-1.86.76-1.86S214,44.78,214,45.81Z" transform="translate(-6.74 -5.87)"/><path class="cls-5" d="M204.45,42.67s1.11-1.85,3.91-1" transform="translate(-6.74 -5.87)"/><path class="cls-5" d="M211.53,41.67s1.87-2.28,3.55,0" transform="translate(-6.74 -5.87)"/><path class="cls-5" d="M211.35,45.81s.18,4.13,1.3,4.13.75,1.85-.75,2.47" transform="translate(-6.74 -5.87)"/><path class="cls-5" d="M210.41,56.55a3.24,3.24,0,0,1-4.66-2.07" transform="translate(-6.74 -5.87)"/><path class="cls-2" d="M211.2,148s-19-18.45-38.71-24.73-42.36-3.33-62.05-9.23-31-14-31-14l-1,19.56,132.16,39.51L301,131.38l9-20.3s-11,6.27-30.69,11.44-41.75,5.16-54.11,10.3S211.2,148,211.2,148Z" transform="translate(-6.74 -5.87)"/><path class="cls-2" d="M76.41,104.42s22,14.77,71.73,19.94C180.86,127.76,211.2,148,211.2,148a83.6,83.6,0,0,1,44.35-15.5c26-1.11,55.72-12.56,55.72-12.56l-5.66,12.9-97.08,21L74.41,115.09Z" transform="translate(-6.74 -5.87)"/><path class="cls-2" d="M72.75,108.86a165.59,165.59,0,0,0,59.38,16.94c35.69,3,78.06,22.15,78.06,22.15s22.35-13.28,47.07-13.28a199.15,199.15,0,0,0,54.38-8.13,15.94,15.94,0,0,0-.4,6.3,15.29,15.29,0,0,0,2.06,5.89L209.86,163.11,72.08,118.79Z" transform="translate(-6.74 -5.87)"/><path class="cls-12" d="M73.42,117.62l132.1,36.64v5.17l11.34.37v-6l99.42-17.35s4.34-1.11.67,4.43-67.72,67.19-67.72,67.19l-71.06,8.12L70.4,190.07l.65-70.43a2.4,2.4,0,0,1,.19-.92,2.2,2.2,0,0,1,.55-.73,1.76,1.76,0,0,1,.77-.39A1.67,1.67,0,0,1,73.42,117.62Z" transform="translate(-6.74 -5.87)"/><path class="cls-4" d="M205.52,159.43v-5.17L71.07,117l-.66,73.09,107.76,26.21,1.93-.22,28.44-56.53Z" transform="translate(-6.74 -5.87)"/><path class="cls-5" d="M73.42,117.62l132.1,36.64v5.17l11.34.37v-6l99.42-17.35s4.34-1.11.67,4.43-67.72,67.19-67.72,67.19l-71.06,8.12L70.4,190.07l.65-70.43a2.4,2.4,0,0,1,.19-.92,2.2,2.2,0,0,1,.55-.73,1.76,1.76,0,0,1,.77-.39A1.67,1.67,0,0,1,73.42,117.62Z" transform="translate(-6.74 -5.87)"/><path class="cls-13" d="M205.52,159.43l-29.69,56.85,5.68.36,35.35-56.84Z" transform="translate(-6.74 -5.87)"/><path class="cls-11" d="M304.61,138.82s8.87,1.84,7,8.38L317,141s2.44-3.36,1.32-4S304.61,138.82,304.61,138.82Z" transform="translate(-6.74 -5.87)"/><path class="cls-11" d="M85.66,121.34s-12.53,3.83-14.48,14.2l-.11-15.9s.38-2.39,2.36-2S85.66,121.34,85.66,121.34Z" transform="translate(-6.74 -5.87)"/><path class="cls-11" d="M70.53,185.2l6.3,6.64-6.42-1.77Z" transform="translate(-6.74 -5.87)"/><path class="cls-11" d="M244.69,208.59l8.54-4.65-4.49,4.32Z" transform="translate(-6.74 -5.87)"/><path class="cls-2" d="M241.69,92.43l24.05,31.89-6.06,1.06-25.77-24S240.58,96.51,241.69,92.43Z" transform="translate(-6.74 -5.87)"/><path class="cls-2" d="M135.08,113.64s-1.2-1.61-1.51-.17-3,6.45-.91,6.8,3.33-5.36,3.33-5.36Z" transform="translate(-6.74 -5.87)"/><path class="cls-2" d="M138,113.45s-1.22-1.61-1.51-.18-3,6.45-.91,6.82,3.34-5.38,3.34-5.38Z" transform="translate(-6.74 -5.87)"/><path class="cls-2" d="M140.85,113.33s-1.44-1.79-1.81-.2-3.63,7.16-1.08,7.57,3.95-6,3.95-6Z" transform="translate(-6.74 -5.87)"/><path class="cls-2" d="M143.36,113.93l4.85,5.17h-5.74Z" transform="translate(-6.74 -5.87)"/><path class="cls-2" d="M143.36,113.93s-1.44-1.79-1.81-.2-3.62,7.17-1.07,7.56,4-6,4-6Z" transform="translate(-6.74 -5.87)"/><path class="cls-2" d="M272.26,118.57s1-1.8,1.48-.44,3.9,5.85,1.86,6.57-4.05-4.73-4.05-4.73Z" transform="translate(-6.74 -5.87)"/><path class="cls-2" d="M269.42,118.87s1-1.8,1.47-.44,3.91,5.85,1.87,6.57-4.06-4.73-4.06-4.73Z" transform="translate(-6.74 -5.87)"/><path class="cls-2" d="M266.56,119.26s1.17-2,1.75-.51,4.52,6.45,2.13,7.28-4.75-5.2-4.75-5.2Z" transform="translate(-6.74 -5.87)"/><path class="cls-2" d="M264.16,120.29l-4.06,5.95,5.68-1Z" transform="translate(-6.74 -5.87)"/><path class="cls-2" d="M264.16,120.29s1.16-2,1.75-.51,4.52,6.45,2.13,7.28-4.75-5.2-4.75-5.2Z" transform="translate(-6.74 -5.87)"/><path class="cls-7" d="M99.25,173.79l5.79-1-5.79-1A2.41,2.41,0,0,1,97.9,171a2.88,2.88,0,0,1-.68-1.5l-.9-6.42-.91,6.42a2.72,2.72,0,0,1-.67,1.49,2.37,2.37,0,0,1-1.34.76l-5.81,1,5.81,1a2.37,2.37,0,0,1,1.33.76,2.77,2.77,0,0,1,.68,1.49l.91,6.41.9-6.41a2.82,2.82,0,0,1,.69-1.49A2.37,2.37,0,0,1,99.25,173.79Z" transform="translate(-6.74 -5.87)"/><path class="cls-14" d="M56,217.28l5.81-1-5.81-1a2.43,2.43,0,0,1-1.34-.76A2.81,2.81,0,0,1,54,213L53,206.61l-.9,6.43a2.75,2.75,0,0,1-.69,1.48,2.31,2.31,0,0,1-1.34.76l-5.8,1,5.8,1a2.31,2.31,0,0,1,1.34.76,2.75,2.75,0,0,1,.69,1.48L53,226l.91-6.43a2.81,2.81,0,0,1,.68-1.48A2.43,2.43,0,0,1,56,217.28Z" transform="translate(-6.74 -5.87)"/><path class="cls-15" d="M56,217.28l5.81-1-5.81-1a2.43,2.43,0,0,1-1.34-.76A2.81,2.81,0,0,1,54,213L53,206.61l-.9,6.43a2.75,2.75,0,0,1-.69,1.48,2.31,2.31,0,0,1-1.34.76l-5.8,1,5.8,1a2.31,2.31,0,0,1,1.34.76,2.75,2.75,0,0,1,.69,1.48L53,226l.91-6.43a2.81,2.81,0,0,1,.68-1.48A2.43,2.43,0,0,1,56,217.28Z" transform="translate(-6.74 -5.87)"/><path class="cls-14" d="M200.44,244.05l5.81-1-5.81-1a2.35,2.35,0,0,1-1.34-.75,2.81,2.81,0,0,1-.68-1.48l-.91-6.42-.91,6.42a2.74,2.74,0,0,1-.68,1.48,2.35,2.35,0,0,1-1.34.75l-5.81,1,5.81,1a2.31,2.31,0,0,1,1.34.76,2.74,2.74,0,0,1,.68,1.48l.91,6.42.91-6.42a2.81,2.81,0,0,1,.68-1.48A2.31,2.31,0,0,1,200.44,244.05Z" transform="translate(-6.74 -5.87)"/><path class="cls-15" d="M200.44,244.05l5.81-1-5.81-1a2.35,2.35,0,0,1-1.34-.75,2.81,2.81,0,0,1-.68-1.48l-.91-6.42-.91,6.42a2.74,2.74,0,0,1-.68,1.48,2.35,2.35,0,0,1-1.34.75l-5.81,1,5.81,1a2.31,2.31,0,0,1,1.34.76,2.74,2.74,0,0,1,.68,1.48l.91,6.42.91-6.42a2.81,2.81,0,0,1,.68-1.48A2.31,2.31,0,0,1,200.44,244.05Z" transform="translate(-6.74 -5.87)"/><path class="cls-14" d="M48.55,183.13l3.84-.68-3.84-.67a1.56,1.56,0,0,1-.89-.49,1.88,1.88,0,0,1-.45-1l-.6-4.23L46,180.3a1.88,1.88,0,0,1-.45,1,1.53,1.53,0,0,1-.89.49l-3.84.67,3.84.68a1.53,1.53,0,0,1,.89.49,1.88,1.88,0,0,1,.45,1l.6,4.24.6-4.24a1.88,1.88,0,0,1,.45-1A1.56,1.56,0,0,1,48.55,183.13Z" transform="translate(-6.74 -5.87)"/><path class="cls-15" d="M48.55,183.13l3.84-.68-3.84-.67a1.56,1.56,0,0,1-.89-.49,1.88,1.88,0,0,1-.45-1l-.6-4.23L46,180.3a1.88,1.88,0,0,1-.45,1,1.53,1.53,0,0,1-.89.49l-3.84.67,3.84.68a1.53,1.53,0,0,1,.89.49,1.88,1.88,0,0,1,.45,1l.6,4.24.6-4.24a1.88,1.88,0,0,1,.45-1A1.56,1.56,0,0,1,48.55,183.13Z" transform="translate(-6.74 -5.87)"/><path class="cls-14" d="M297.54,192.5l3.83-.66-3.83-.67a1.54,1.54,0,0,1-.89-.5,1.85,1.85,0,0,1-.45-1l-.61-4.25-.6,4.25a1.85,1.85,0,0,1-.45,1,1.54,1.54,0,0,1-.89.5l-3.84.67,3.84.66a1.6,1.6,0,0,1,.89.5,1.85,1.85,0,0,1,.45,1l.6,4.25.61-4.25a1.85,1.85,0,0,1,.45-1A1.6,1.6,0,0,1,297.54,192.5Z" transform="translate(-6.74 -5.87)"/><path class="cls-15" d="M297.54,192.5l3.83-.66-3.83-.67a1.54,1.54,0,0,1-.89-.5,1.85,1.85,0,0,1-.45-1l-.61-4.25-.6,4.25a1.85,1.85,0,0,1-.45,1,1.54,1.54,0,0,1-.89.5l-3.84.67,3.84.66a1.6,1.6,0,0,1,.89.5,1.85,1.85,0,0,1,.45,1l.6,4.25.61-4.25a1.85,1.85,0,0,1,.45-1A1.6,1.6,0,0,1,297.54,192.5Z" transform="translate(-6.74 -5.87)"/><path class="cls-7" d="M122.13,157.21l3.76-.66-3.76-.65a1.51,1.51,0,0,1-.87-.49,1.81,1.81,0,0,1-.44-1l-.59-4.17-.59,4.17a1.86,1.86,0,0,1-.45,1,1.53,1.53,0,0,1-.87.49l-3.76.65,3.76.66a1.43,1.43,0,0,1,.87.49,1.83,1.83,0,0,1,.45,1l.55,4.2.6-4.16a1.79,1.79,0,0,1,.44-1A1.53,1.53,0,0,1,122.13,157.21Z" transform="translate(-6.74 -5.87)"/><path class="cls-7" d="M246.59,198.33l3.77-.66-3.77-.65a1.56,1.56,0,0,1-.87-.49,1.85,1.85,0,0,1-.44-1l-.59-4.17-.59,4.17a1.85,1.85,0,0,1-.44,1,1.56,1.56,0,0,1-.87.49l-3.77.65,3.77.66a1.56,1.56,0,0,1,.87.49,1.85,1.85,0,0,1,.44,1l.59,4.16.59-4.16a1.77,1.77,0,0,1,.44-1A1.56,1.56,0,0,1,246.59,198.33Z" transform="translate(-6.74 -5.87)"/></svg>